<svg width="64" height="64" viewBox="0 0 64 64" fill="none" xmlns="http://www.w3.org/2000/svg">
<path d="M45.3332 40H49.3332C54.4878 40 58.6665 35.8213 58.6665 30.6667V17.3333C58.6665 12.1787 54.4878 8 49.3332 8H27.9998C22.8452 8 18.6665 12.1787 18.6665 17.3333V24" stroke="white" stroke-width="1.5" stroke-linecap="round" stroke-linejoin="round"/>
<path d="M14.6665 34.627L22.713 38.0853C24.3873 38.8049 26.2831 38.8078 27.9595 38.0933L35.9998 34.6661" stroke="white" stroke-width="1.5" stroke-linecap="round" stroke-linejoin="round"/>
<path fill-rule="evenodd" clip-rule="evenodd" d="M13.3335 24H36.0002C41.1548 24 45.3335 28.1787 45.3335 33.3333V46.6667C45.3335 51.8213 41.1548 56 36.0002 56H14.6668C9.51217 56 5.3335 51.8213 5.3335 46.6667V32C5.3335 27.5817 8.91522 24 13.3335 24Z" stroke="white" stroke-width="1.5" stroke-linecap="round" stroke-linejoin="round"/>
</svg>
